<?xml version="1.0" encoding="UTF-8"?>
<svg id="Layer_1" data-name="Layer 1" xmlns="http://www.w3.org/2000/svg" viewBox="0 0 950 950">
  <defs>
    <style>
      .cls-1, .cls-2 {
        fill: #fff;
      }

      .cls-2, .cls-3, .cls-4, .cls-5, .cls-6, .cls-7 {
        fill-rule: evenodd;
      }

      .cls-3 {
        fill: #2e3191;
      }

      .cls-4 {
        fill: #f16722;
      }

      .cls-5 {
        fill: #ddad5f;
      }

      .cls-6 {
        fill: #00a551;
      }

      .cls-8 {
        fill: #fff100;
      }
    </style>
  </defs>
  <path class="cls-7" d="m836.18,581.78c0,198.67-162.55,361.22-361.22,361.22h0c-198.67,0-361.22-162.55-361.22-361.22V7.09h722.44v574.69Z"/>
  <path class="cls-3" d="m128.18,164.11v417.67c0,190.7,156.08,346.77,346.77,346.77s346.77-156.08,346.77-346.77V164.11H128.18Z"/>
  <rect class="cls-8" x="128.18" y="21.54" width="693.54" height="124.19"/>
  <g>
    <path class="cls-7" d="m195.04,52.56v33.67l23.74-33.67h16.99l-18.24,25.61,22.79,46.41h-19.44l-15.2-31.2-10.64,14.68v16.52h-17.4V52.56h17.4Zm79.46,73.09c-10.2,0-18.11-3.64-23.7-10.91-5.59-7.29-8.38-16.09-8.38-26.42s2.83-19.27,8.49-26.31c5.67-7.03,13.73-10.54,24.21-10.54s18.56,3.74,23.95,11.25c5.39,7.5,8.08,16.1,8.08,25.77,0,10.44-2.77,19.24-8.32,26.4-5.56,7.18-13.65,10.76-24.33,10.76h0Zm.51-60.46c-9.29,0-13.93,7.77-13.93,23.34s4.64,23.41,13.93,23.41,13.48-7.79,13.48-23.36-4.49-23.39-13.48-23.39h0Zm91.33-12.63v14.25h-18.77v57.76h-17.97v-57.76h-18.88v-14.25h55.63Zm39.7,0h-20.7l-24.29,72.01h15.57l4.8-14.9h24.46l4.68,14.9h19.09l-23.61-72.01h0Zm-20.38,43.83l8.1-25.23,7.95,25.23h-16.04Z"/>
    <path class="cls-7" d="m452.78,52.56h22.08c8.99,0,15.69,1.24,20.1,3.72,4.42,2.48,8.36,6.39,11.85,11.77,3.49,5.36,5.25,12.13,5.25,20.33,0,10.29-3.06,18.91-9.16,25.82-6.1,6.91-14.51,10.37-25.25,10.37h-24.88V52.56h0Zm16.61,13.28v45.24h6.97c6.17,0,10.75-2.3,13.73-6.89,2.99-4.59,4.49-9.99,4.49-16.18,0-4.35-.85-8.4-2.57-12.11-1.7-3.71-3.82-6.32-6.35-7.81-2.53-1.49-5.59-2.25-9.14-2.25h-7.13Zm105.49.43h-34.42v14.79h27.04v13.5h-27.04v15.76h34.42v14.25h-51.69V52.56h51.69v13.71h0Zm27.45,31.52v26.78h-17.26V52.56h28.52c6.35,0,11.22.68,14.6,2.03,3.37,1.35,6.39,3.76,9.03,7.25,2.66,3.47,3.98,7.74,3.98,12.81,0,3.54-.71,7-2.12,10.38-1.41,3.36-3.4,6.03-5.99,7.95-2.57,1.94-5.07,3.22-7.49,3.85-2.41.63-6.21.95-11.37.95h-11.91Zm-.54-13.06h11c4.2,0,7.13-.97,8.83-2.9,1.68-1.94,2.53-4.15,2.53-6.66,0-2.91-.94-5.24-2.82-6.96-1.9-1.73-4.76-2.59-8.6-2.59h-10.95v19.11h0Zm75.95,40.92c-9.73,0-17.28-3.64-22.62-10.91-5.34-7.29-8-16.09-8-26.42s2.7-19.27,8.11-26.31c5.41-7.03,13.1-10.54,23.11-10.54s17.72,3.74,22.86,11.25c5.14,7.5,7.71,16.1,7.71,25.77,0,10.44-2.64,19.24-7.95,26.4-5.3,7.18-13.03,10.76-23.22,10.76h0Zm.49-60.46c-8.87,0-13.3,7.77-13.3,23.34s4.43,23.41,13.3,23.41,12.87-7.79,12.87-23.36-4.29-23.39-12.87-23.39h0Zm58.38-12.63v33.67l22.66-33.67h16.22l-17.41,25.61,21.75,46.41h-18.55l-14.51-31.2-10.15,14.68v16.52h-16.61V52.56h16.61Z"/>
  </g>
  <path class="cls-7" d="m534.25,764.96c-28.09-21.22-52.98-29.88-82.03-39.98-10.33-3.59-21.19-7.37-32.84-11.93-6.05.9-10.08,3.99-14.77,7.58-11.18,8.57-25.92,19.85-78.08,14.28l-.85-3.26c14.28-10.22,31.61-12.76,48.93-15.3,11.63-1.71,23.26-3.42,33.77-7.47-6.07-1.94-11.77-2.89-17.38-3.82-6.25-1.03-12.39-2.06-18.88-4.37-1.31,1.33-2.77,2.56-4.35,3.68h0c-1.9,1.35-3.98,2.52-6.21,3.5-16.74,7.37-35.05,8.17-52.14,3.79-17.81-4.55-34.32-14.73-46.38-28.95l-1.49-1.75,2.07-1.03c20.22-10.04,37.07-3.09,54.27,4.02,12.97,5.36,26.17,10.81,41,8.61-4.46-2.23-8.81-4.34-13.08-6.42-15.72-7.64-30.55-14.84-43.43-23.87-1.69.91-3.49,1.7-5.4,2.43-2.2.84-4.63,1.62-7.22,2.41-16.97,5.15-32.2,2.74-46.13-5.34-13.76-7.98-26.2-21.5-37.76-38.68l-1.41-2.1,2.45-.65c25.47-6.72,38.54,4.38,52.11,15.91,9.79,8.32,19.87,16.88,35.23,18.49.14.01.33-.01.54-.07-3.85-3.31-7.84-6.66-11.75-9.94-13.36-11.22-25.98-21.81-36.27-33.7-.62.07-1.26.14-1.93.19-.96.08-2.15.16-3.54.24-7.7.44-15.91-1.13-23.96-4.07-12.64-4.63-24.95-12.72-34.21-21.88-9.39-9.28-15.72-19.74-16.24-28.95-.15-2.7.19-5.3,1.08-7.73l.42-1.16,1.23-.02c26.34-.52,36.42,13.35,46.9,27.76,6.47,8.91,13.11,18.04,24.03,23.73-1.81-3.06-3.58-6.03-5.34-8.96-8.77-14.65-17.07-28.5-22.89-42.76l-.46-.05c-.35-.03-.99-.09-1.99-.17h0c-17.46-1.44-31.34-9.02-40.87-21.93-9.38-12.71-14.49-30.57-14.61-52.8v-2.34s2.25.59,2.25.59c25.42,6.66,29.94,20.01,34.82,34.38,3.27,9.63,6.7,19.76,17.35,28.37-.85-3.15-1.69-6.2-2.53-9.23-4.04-14.65-7.88-28.57-9.95-42.22l-.79-.13.14-1.65.15-1.78-.02-.18-.07-.03h0s-1.11-.52-1.11-.52h0c-15.2-6.93-24.88-19.69-29.66-35.32-5.18-16.96-4.57-37.32,1.03-57.24l.68-2.42,2.07,1.42c20.99,14.41,20.82,30.33,20.65,46.33-.12,11.15-.23,22.36,7.52,32.89.16-2.57.31-5.07.46-7.55.97-16.11,1.88-31.37,4.71-45.73l-.73-.65h0c-.61-.53-1.36-1.16-2.27-1.87-13.17-10.27-19.63-24.93-20.64-41.26-1.1-17.69,4.23-37.35,14.32-55.43l1.23-2.2,1.68,1.87c17.06,18.89,13.19,34.34,9.31,49.86-3.01,12.03-6.04,24.12,1.68,37.82l.05.11c.87-2.87,1.8-5.96,2.71-9.01,4.57-15.27,8.9-29.76,14.81-42.94-.42-1-1.09-2.51-2.55-4.94-8.63-14.3-9.41-30.3-4.52-45.9,5.3-16.93,17.31-33.38,33.19-46.66l1.93-1.61.9,2.34c9.18,23.74.05,36.78-9.13,49.89-7.11,10.16-14.26,20.37-11.95,35.92v.25s.02.15.02.15c2.87-3.86,5.61-7.62,8.32-11.33,7.97-10.92,15.58-21.36,23.79-30.66l-.26-.39,1.3-1.05.87-.69c.5-.55,1.06-1.16,1.68-1.82l1.08-1.14-.09-.31c-.13-.45-.29-.97-.5-1.57-4.69-13.98-2.29-27.92,4.92-40.41,7.81-13.54,21.29-25.39,37.48-33.76l2.24-1.15.37,2.49c3.35,22.23-7.02,31.71-17.45,41.24-7.47,6.83-14.97,13.69-16.75,25.69l4.97-4.21c12.49-10.6,24.32-20.64,36.84-28.56v-.08c-.05-.4-.1-.87-.17-1.39-1.78-13.16,2.7-25.07,11.18-34.9,9.18-10.63,23.07-18.81,38.77-23.45l2.41-.71-.1,2.51c-.8,20.24-11.57,26.86-22.39,33.52-7.34,4.51-14.71,9.05-18.48,18.3,5.75-3.47,10.88-7.53,16-11.59,14.94-11.85,29.88-23.69,61.05-22.22l3.12.15-1.69,2.62c-11.46,17.85-32.12,24.42-51.43,30.55-8.89,2.83-17.48,5.55-24.61,9.25,8.87,1.59,18.46-1.14,27.96-3.85,15.38-4.39,30.55-8.71,43.6,4.03l-1.57,3.07c-7.86-1.4-15.67,1.66-24.06,4.94-14.91,5.84-31.55,12.35-54.51-2.02-6.59,6.24-13.5,12.16-20.71,17.74-6.47,5-13.2,9.74-20.18,14.21,9.8.77,18.95-3.55,28-7.82,14-6.61,27.76-13.1,44.12-2.28l-.97,3.3c-8.9.12-16.1,4.39-23.67,8.88-13.67,8.11-28.52,16.92-56.9,5.71-5.32,8.09-11.1,15.95-17.33,23.53-5.59,6.8-11.54,13.37-17.83,19.69,11.19-1.54,20.36-8.66,29.42-15.7,13.85-10.76,27.48-21.35,48.2-13.42l-.23,3.44c-9.94,2.35-16.89,8.89-24.2,15.77-12.95,12.18-26.99,25.39-60.14,20.59-2.12,8.7-4.69,17.36-7.71,25.95-2.66,7.57-5.67,15.06-9.01,22.45,8.82-4.91,14.83-12.37,20.65-19.59,10.5-13.02,20.42-25.3,44.5-22.46l.54,3.44c-10.39,4.72-15.35,12.55-20.47,20.64-8.46,13.36-17.39,27.44-50.05,31.22-.06,9.22-.59,18.46-1.6,27.69-.94,8.63-2.29,17.24-4.05,25.83.82-.44,1.51-.91,1.93-1.34l.15-.13c9.16-7.37,13.29-17.06,17.13-26.09,5.98-14.04,11.32-26.57,32.61-28.09l1.27,3.19c-8.16,6.73-11.43,17.29-14.71,27.9-5.45,17.61-10.94,35.33-37.7,38.46l-.52.06c2.88,8.79,5.32,17.74,7.3,26.84,1.92,8.81,3.42,17.8,4.5,26.93.37-.33.65-.65.79-.95l.1-.18c6.04-9.91,7.03-20.21,7.94-29.82,1.45-15.31,2.76-28.96,22.43-37.66l2.28,2.57c-5.39,9.08-5.62,19.72-5.84,30.31-.38,17.77-.75,35.42-23.81,47.05l-.2.1c5.79,8.52,11.12,17.41,15.97,26.65,4.57,8.7,8.7,17.69,12.36,26.94l.02-.1.06-.26c4.07-12.89,1.29-24.64-1.34-35.72-3.74-15.79-7.18-30.33,8.25-45.63l2.99,1.83c-3.36,10.45,1.3,21.3,6.01,32.26,7.58,17.64,15.28,35.56-6.85,54.19-.95.8-1.76,1.47-2.46,1.99h0s-.08.05-.08.05c8.02,6.05,15.73,12.57,23.12,19.54,7.35,6.94,14.36,14.33,21.01,22.15.12-.31.18-.59.16-.8-1-12.67-6.5-23.21-11.47-32.74-8.28-15.88-15.18-29.11.29-45.18l3.03,1.74c-3.91,13.59,3.45,24.94,10.78,36.24,7.39,11.4,14.75,22.75,11.61,36.76h0c-.63,2.81-1.51,5.22-2.62,7.31-.68,1.29-1.46,2.46-2.31,3.53,9.7,4.07,19.22,8.72,28.5,13.95,8.76,4.93,17.32,10.39,25.65,16.37-4.17-11.51-12.3-20.57-19.79-28.93-12.77-14.25-23.81-26.56-12.67-45.83l3.36.97c-.53,14,10.88,22.98,22.25,31.91,11.53,9.06,23.02,18.09,23.33,32.58.07,3.13-.23,6.11-.86,8.9-.5,2.2-1.2,4.29-2.1,6.27,8.92,3.61,17.3,5.9,26.43,8.39,7.95,2.17,16.47,4.5,26.37,7.97-1.64-9-5.38-17.64-8.96-25.93-6.81-15.75-13.08-30.28-4.49-44.65l3.3.52c1.51,6.63,5.88,13.81,10.45,21.34,9.66,15.9,20.22,33.3,9.14,52.1,13.51,4.72,26.35,7.79,39.05,10.83,17.51,4.19,34.77,8.32,53.34,16.61l.91.41.14.98,3.26,22.82-1.78.25-1.09,1.44Z"/>
  <path class="cls-5" d="m535.33,763.03c-38.41-29.02-70.76-34.68-115.74-52.32-21.6,2.78-17.85,29.94-92.89,21.92,24.77-17.73,59.66-11.87,86.61-24.39-15.19-5.98-27.68-4.84-41.72-10.14-2.89,3.17-6.53,5.76-10.8,7.63-33.41,14.71-73.27,2.6-96.41-24.66,36.09-17.92,61.8,20.64,98.61,12.06.44-.06.85-.18,1.23-.35-22.52-11.47-44.11-20.51-61.78-33.11-3.75,2.19-8.23,3.73-13.25,5.25-32.88,9.99-59.05-9.37-81.88-43.31,43.15-11.39,49.74,30.57,86.7,34.46,1.08.11,2.51-.5,3.91-1.49-18.56-16.09-36.73-29.83-50.48-45.92-1.69.24-3.71.39-6.3.54-34.31,1.94-79.89-37.39-71.53-60.21,44.26-.88,41.18,40.76,75.28,53.63-11.79-20.27-23.82-38.47-31.37-57.35-.9-.09-2.06-.2-3.57-.33-33.74-2.79-53.59-29.12-53.83-72.94,43.17,11.32,23.8,42.8,54.06,64.37.4.29.9.47,1.47.55-5.35-20.16-11.2-38.8-13.8-56.92l-.44-.07.17-1.94-.18-1.4c-.6-.28-1.29-.6-2.09-.97-30.8-14.04-38.19-52.96-27.64-90.44,36.75,25.23,6.07,55.69,30.69,82.37,1.41-20.91,1.95-40.53,5.63-58.55-.79-.76-1.95-1.82-3.86-3.31-26.69-20.82-24.83-60.39-5.85-94.39,29.91,33.12-7.13,55.62,10.75,87.35.38.98,1.34,1.81,2.54,2.41,6.08-19.79,11.05-38.54,18.58-55.09-.44-1-1.05-2.73-2.97-5.9-17.49-28.98-1.6-65.28,28.28-90.25,16.09,41.63-26.54,49.4-21.19,85.42,0,1.11.67,2.3,1.67,3.33,12.09-16.11,22.68-31.81,34.52-45.03l-.12-.17.98-.79c1.16-1.27,2.33-2.52,3.51-3.74-.2-.8-.47-1.78-.88-2.97-9.46-28.21,11.11-56.29,41.52-72,5.84,38.78-32.21,37.29-34.52,69.22-.1.47-.07.98.07,1.51,15.86-13.3,30.27-26.26,45.71-35.88-.04-.72-.12-1.59-.26-2.66-3.57-26.42,19.27-47.68,48.68-56.38-1.39,35.12-34.64,27.4-42.05,55.11-.08.19-.13.39-.17.6,25.22-13.17,36.46-37.91,80.11-35.84-17.06,26.58-55.9,27.58-78.21,40.75.72.82,1.58,1.42,2.41,1.61,23.7,5.09,50.97-20.24,71.57-.11-22.56-4.01-42.81,25.77-78.71,2.66l-.38-.24c-13.62,13.03-28.72,24.74-45.18,34.93.81.52,1.66.85,2.44.88,26.16,3.73,46.39-27.93,73.19-10.19-25.57.33-36.29,32.26-80.48,14.48l-.77-.31c-10.97,16.9-23.94,32.73-38.81,47.2.9.29,1.79.39,2.56.24,29.98-2.33,44.61-42.5,78.77-29.44-28.22,6.69-32.3,44.56-85.29,36.09-4.35,18.37-10.68,36.45-18.97,53.97.73-.1,1.39-.31,1.93-.64,27.17-12.89,28.84-47.61,66.65-43.16-28.03,12.74-17.68,46.05-70.87,51.81l-.71.08c-.02,19.27-2.11,38.72-6.32,58.07,2.25-.64,4.55-1.88,5.68-3.02,23.42-18.86,14.75-51.36,48.74-53.78-22.04,18.18-9.57,61.06-51.48,65.96-1.16.14-2.03.28-2.69.42,6.26,18.62,10.54,38.1,12.69,58.2,1.78-.78,3.32-1.94,3.91-3.2,15.66-25.67-1.6-52.98,29.56-66.76-14.59,24.56,7.07,58.52-28.91,76.67-.83.42-1.47.78-1.99,1.08,12.31,17.84,22.6,37.35,30.57,58.26,1.1-.91,1.91-2.32,2.16-3.86,9.92-31.41-19.14-55.21,6.46-80.62-8.96,27.86,34.8,56.1-.28,85.63-1.75,1.47-3.13,2.55-4.48,3.36,17.29,12.8,33.23,27.8,47.46,44.84,1.1-1.4,1.81-2.87,1.72-4.02-2.65-33.53-35.51-51.78-11.68-76.54-8.08,28.05,28.47,45.88,22.36,73.1-1.18,5.26-3.31,9.04-6.21,11.93,20.81,8.49,40.78,19.69,59.47,33.5.25-1.02.23-2.13-.13-3.2-10.62-31.91-50.24-44.78-33.05-74.53-1.12,29.17,44.98,36.69,45.58,64.58.13,6.01-1.15,11.43-3.63,16.07,18.27,7.69,33.85,9.56,57.51,18.15-3.5-27.3-27.2-50.53-14.15-72.37,4.86,21.29,36.98,46.45,18.63,73.99,33.05,11.91,61.76,13.59,94.37,28.14,1.09,7.6,2.17,15.21,3.26,22.82Z"/>
  <g>
    <path class="cls-2" d="m603.33,244.61c3.43-3.82,6.85-7.64,10.28-11.46-5.37-14.69,2.09-27.18-7.91-41.67-7.88-4.99-21.62,1.15-21.78,12.2-19.09-14.65-26.52,4.25-36.25,8.28,6.86,8.94-1.47,24.1,19.17,23.5-9.83,8.12-11.59,15.44-3.54,24.16,10.81-5.43,29.22-9.59,40.03-15.01Z"/>
    <path class="cls-7" d="m602.54,243.58l9.61-10.72c-2.09-6.16-2.06-11.87-2.04-17.51.04-7.55.07-14.98-5.31-22.92-1.59-.95-3.43-1.4-5.34-1.43-2.35-.03-4.81.58-7.01,1.72-2.19,1.14-4.12,2.81-5.44,4.89-1.11,1.76-1.79,3.81-1.82,6.09l-.03,2.53-2.01-1.54c-12.95-9.93-20.24-3.39-26.75,2.45h0c-2.29,2.05-4.49,4.03-6.85,5.32,1.81,3.01,2.34,6.41,2.84,9.7.99,6.44,1.9,12.38,14.41,12.02l.85,2.25c-4.68,3.86-7.43,7.48-8.04,11.08-.56,3.32.72,6.76,3.99,10.53,5.39-2.58,12.36-4.88,19.33-7.16,7.16-2.35,14.33-4.7,19.62-7.32h0Zm12-9.58l-10.28,11.46-.38.29c-5.5,2.76-12.84,5.17-20.18,7.58-7.27,2.38-14.54,4.77-19.86,7.44l-.85.43-.65-.7c-4.31-4.67-5.99-9.03-5.26-13.38.59-3.52,2.78-6.94,6.42-10.42-11.59-.69-12.59-7.17-13.66-14.15-.53-3.45-1.08-7.04-3.21-9.81l-1.01-1.31,1.54-.64c2.5-1.03,4.95-3.23,7.51-5.54h0c6.94-6.24,14.68-13.18,28.17-3.91.33-1.87,1.03-3.58,2-5.11,1.56-2.47,3.84-4.44,6.41-5.78,2.56-1.33,5.44-2.05,8.21-2.01,2.46.04,4.85.66,6.89,1.95l.37.35c5.99,8.68,5.95,16.57,5.91,24.6-.02,5.64-.05,11.35,2.14,17.36l.26.71-.51.57Z"/>
    <path class="cls-6" d="m560.78,262.73c1.39-11.74,13.34-18.03,30.75-17.7-11.45-5.97-16.93-16.47-20.74-28.25,10.99-4.36,22.13-5.94,33.48-3.48-9.97-10.94.28-21.24,2.83-29.72,8.06,27.64,36.47,34.13,21.73,67.03-19.64,21.07-47.29.48-68.06,12.11Z"/>
    <path class="cls-7" d="m559.52,262.58c.73-6.21,4.21-11,9.78-14.2,4.61-2.65,10.66-4.2,17.76-4.55-4.02-2.77-7.21-6.18-9.82-10.03h0c-3.35-4.95-5.72-10.63-7.66-16.62l-.37-1.13,1.11-.44c5.6-2.22,11.25-3.73,16.93-4.38,4.62-.52,9.28-.48,13.96.23-5.12-7.84-1.45-15.19,1.86-21.8,1.12-2.25,2.21-4.42,2.82-6.43h2.44c2.88,9.9,8.49,17.08,13.71,23.78,9.4,12.06,17.61,22.59,7.97,44.13l-.23.35c-11.51,12.35-25.46,10.94-39.29,9.54-10.22-1.03-20.38-2.06-29.08,2.81l-2.18,1.22.29-2.48h0Zm11.04-12c-4.09,2.35-6.88,5.67-8.04,9.86,8.79-3.9,18.47-2.92,28.21-1.94,13.14,1.33,26.4,2.67,37.03-8.6,8.88-20.02,1.14-29.96-7.74-41.33-4.76-6.1-9.83-12.6-13.02-21.22-.51,1.13-1.08,2.27-1.67,3.44-3.32,6.63-7.04,14.08-.13,21.66l-1.21,2.1c-5.54-1.2-11.03-1.41-16.47-.79-5.09.58-10.14,1.88-15.16,3.78,1.8,5.36,3.98,10.42,6.97,14.84h0c3.16,4.67,7.25,8.65,12.77,11.53l-.61,2.4c-8.59-.16-15.79,1.31-20.95,4.28Z"/>
    <path class="cls-6" d="m422.39,763.52c38.42-29.02,84.61-46.66,129.59-64.3,21.26,9.41,14.49,26.2,92.89,21.92-30.01-7.25-42.07-28.33-86.61-24.39,11.33-4.46,22.55-8.96,33.52-13.67,28.25,25.56,48.08-3.88,79.47-.47-7.9-5.88-17.51-14.19-32.61-9.06,6.77-9.89,9.23-21.21,8.76-33.52-13.69-1.11-26.68-.11-37.14,8.46,6.8-16.56.86-25.92-10.87-32.01,4.23,23.41-20.78,36.79-10.64,61.55-18.1,8.05-38.09,15.59-58.98,23.17,3.49-27.29,18.96-43.79,5.91-65.63-4.86,21.29-33.23,41.21-10.4,67.25-33.05,11.91-67,23.32-99.61,37.87-1.09,7.61-2.17,15.21-3.26,22.82Z"/>
    <path class="cls-7" d="m424.09,760.68c36.81-27.12,80.38-44.2,123.12-60.95l4.31-1.69.49-.19.48.21c5.46,2.41,9.1,5.29,12.75,8.18,10.07,7.96,20.3,16.05,71.95,13.99-7.5-2.55-13.96-5.88-20.41-9.21-15.05-7.75-30.09-15.51-58.42-13l-.57-2.46c5.56-2.19,11.16-4.42,16.88-6.74,5.58-2.27,11.13-4.57,16.61-6.92l.74-.32.61.55c16.7,15.11,30.48,10.31,45.64,5.03,8.84-3.08,18.15-6.32,28.8-6.1-7.03-5.19-15.65-10.52-28.03-6.31l-1.46-1.92c3.29-4.82,5.54-9.98,6.91-15.45,1.29-5.14,1.79-10.55,1.66-16.17-6.35-.46-12.53-.43-18.31.66-6.06,1.14-11.73,3.46-16.79,7.59l-1.98-1.47c3.26-7.94,3.48-14.1,1.51-18.97-1.71-4.2-5.09-7.51-9.59-10.2.98,9.89-2.93,17.97-6.81,26.01-4.8,9.92-9.56,19.77-4.26,32.71l.47,1.14-1.12.5c-9.07,4.03-18.61,7.94-28.5,11.79-9.91,3.85-20.13,7.64-30.56,11.42l-1.96.71.26-2.06c1.19-9.33,3.76-17.38,6.13-24.81,4.22-13.24,7.8-24.48,1.43-37.31-1.84,5.65-5.03,11.17-8.26,16.74-8.26,14.26-16.78,28.97-1.57,46.32l1.23,1.4-1.76.63c-6.81,2.45-12.62,4.52-18.5,6.61-26.89,9.57-54.09,19.25-80.38,30.94l-2.73,19.1h0Zm124.05-58.58c-43.53,17.06-87.92,34.45-124.97,62.44l-.77-1.02-1.26-.18,3.26-22.82.1-.69.64-.29c26.61-11.87,54.08-21.65,81.21-31.3,5.82-2.07,11.68-4.15,16.77-5.98-14.76-18.09-6.02-33.19,2.47-47.85,3.72-6.42,7.39-12.75,8.84-19.11l2.33-.37c8.93,14.95,4.99,27.32.28,42.08-2.16,6.76-4.48,14.04-5.74,22.29,9.76-3.55,19.31-7.09,28.53-10.68,9.45-3.67,18.58-7.41,27.28-11.25-5-13.41-.13-23.48,4.77-33.63,4.04-8.35,8.1-16.76,6.24-27.03l-.46-2.54,2.29,1.19c6.12,3.18,10.75,7.25,12.98,12.73,1.87,4.61,2.02,10.16-.09,16.94,4.5-2.9,9.38-4.67,14.52-5.64,6.4-1.21,13.18-1.18,20.12-.62l1.13.09.05,1.13c.24,6.27-.27,12.3-1.7,18.02-1.17,4.68-2.96,9.16-5.46,13.4,12.98-3.01,21.77,3.61,29.04,9.08l1.47,1.1-.9,2.28c-11.93-1.3-22.25,2.3-32.01,5.7-15.72,5.48-30.03,10.45-47.57-5.01-5.25,2.25-10.56,4.45-15.91,6.62-3.12,1.27-6.31,2.54-9.55,3.83,24.04-.6,37.96,6.57,51.88,13.74,8.34,4.3,16.69,8.6,27.22,11.14l-.24,2.5c-59.23,3.23-70.34-5.55-81.26-14.18-3.41-2.69-6.8-5.38-11.73-7.63l-3.81,1.49Z"/>
    <path class="cls-2" d="m655.8,284.22c4.28-3.13,8.56-6.27,12.84-9.4-1.57-16.38,8.78-27.5,2.65-44.76-6.42-6.97-21.31-3.87-24.2,7.48-14.93-19.54-26.84-1.81-37.31.07,4.45,10.81-7.41,24.47,12.81,28.68-11.58,6.07-15.1,13.19-9.43,24.05,11.86-3.06,30.79-3.05,42.65-6.11Z"/>
    <path class="cls-7" d="m655.24,283.05l12.06-8.84c-.52-6.84.93-12.73,2.36-18.55,1.92-7.8,3.8-15.46.51-24.93-1.3-1.34-2.98-2.24-4.83-2.71-2.17-.55-4.57-.53-6.88.05-2.32.58-4.54,1.72-6.34,3.38-1.77,1.63-3.14,3.77-3.81,6.39l-.65,2.55-1.59-2.09c-10.1-13.22-18.8-8.19-26.57-3.7-2.76,1.6-5.42,3.13-8.07,3.91,1.05,3.53.71,7.19.38,10.72-.64,6.89-1.22,13.26,11.02,15.81l.33,2.37c-5.52,2.89-9.1,5.99-10.6,9.59-1.38,3.32-1,7.19,1.26,11.86,5.87-1.4,13.2-2.12,20.52-2.84,7.55-.75,15.1-1.5,20.9-2.96h0Zm14.14-7.21l-12.83,9.4-.43.2c-6.03,1.56-13.78,2.32-21.52,3.09-7.65.76-15.3,1.51-21.13,3.02l-.98.25-.46-.9c-3.02-5.79-3.57-10.64-1.8-14.9,1.46-3.51,4.48-6.53,8.97-9.28-11.22-3.39-10.59-10.3-9.9-17.74.34-3.69.7-7.54-.7-10.92l-.6-1.45,1.55-.28c2.69-.48,5.62-2.18,8.68-3.95,8.31-4.8,17.57-10.15,28.39,2.54.9-2.11,2.21-3.9,3.79-5.35,2.12-1.96,4.73-3.29,7.44-3.97,2.71-.68,5.55-.71,8.13-.06,2.39.61,4.57,1.81,6.25,3.63l.26.44c3.66,10.3,1.67,18.4-.36,26.64-1.43,5.81-2.88,11.7-2.23,18.42l.07.72-.58.43Z"/>
    <path class="cls-6" d="m609.94,292.95c4.26-11.76,17.45-15.46,34.29-11.04-9.65-8.82-12.38-20.92-13.16-33.93,11.77-1.92,22.99-.96,33.42,4.23-6.98-13.59,5.55-21.81,10.13-29.95.98,30.35,26.99,43.66,4.5,74.11-24.33,17.12-46.1-10.55-69.19-3.41Z"/>
    <path class="cls-7" d="m608.74,292.51c2.25-6.19,6.8-10.3,12.99-12.29,5.19-1.67,11.53-1.84,18.61-.51-3.31-3.84-5.62-8.16-7.22-12.8-2.03-5.89-2.93-12.27-3.33-18.87l-.07-1.14,1.14-.19c6-.98,11.86-1.22,17.56-.56,4.66.54,9.2,1.69,13.62,3.53-3.14-9.31,2.26-16.03,7.12-22.07,1.66-2.07,3.26-4.05,4.35-5.99l2.38.58c.35,10.88,4.02,19.6,7.44,27.72,6.14,14.58,11.49,27.31-3.19,47.19l-.29.28c-14.26,10.04-27.5,5.32-40.6.65-9.68-3.45-19.29-6.88-28.95-3.89l-2.44.76.87-2.4h0Zm13.77-9.87c-4.61,1.48-8.19,4.3-10.36,8.42,9.53-1.98,18.71,1.3,27.95,4.59,12.44,4.43,24.99,8.91,38.12-.22,13.66-18.61,8.59-30.69,2.76-44.52-3.11-7.38-6.42-15.25-7.38-24.84-.77,1.03-1.61,2.07-2.46,3.13-4.9,6.09-10.4,12.93-5.53,22.41l-1.69,1.72c-5.08-2.52-10.35-4.02-15.79-4.66-5.1-.59-10.35-.43-15.72.36.42,6,1.29,11.77,3.11,17.05,1.92,5.56,4.91,10.62,9.56,14.87l-1.17,2.17c-8.3-2.17-15.66-2.33-21.4-.49Z"/>
    <path class="cls-2" d="m699.38,336.01c5.12-2,10.24-4,15.36-6.01,2.78-16.83,16.11-25.21,14.57-44.14-4.58-8.7-20.32-9.54-26.24,1.05-9.76-23.55-26.4-8.96-37.39-9.86,1.58,12.01-13.94,22.54,5.2,32.14-13.21,3-18.64,9.2-15.85,21.59,12.7.08,31.66,5.14,44.36,5.22Z"/>
    <path class="cls-7" d="m699.14,334.73l14.47-5.66c1.3-7,4.31-12.52,7.29-17.96,4-7.31,7.93-14.49,7.15-24.89-.95-1.7-2.4-3.05-4.13-4.02-2.03-1.14-4.45-1.75-6.93-1.78-2.48-.03-5.02.52-7.27,1.7-2.22,1.17-4.17,2.95-5.54,5.4l-1.28,2.29-1-2.42c-6.62-15.97-16.69-13.24-25.69-10.81-3.2.87-6.29,1.7-9.15,1.77.12,3.83-1.2,7.41-2.46,10.87-2.48,6.76-4.77,13,6.85,18.82l-.29,2.38c-6.31,1.43-10.73,3.59-13.2,6.8-2.28,2.98-2.93,6.98-1.9,12.29,6.26.16,13.8,1.39,21.34,2.61h0c7.77,1.26,15.54,2.52,21.74,2.6h0Zm16.06-3.55l-15.36,6.01-.47.08c-6.45-.04-14.42-1.34-22.38-2.63-7.86-1.28-15.74-2.55-21.98-2.6h-1.01s-.22-.99-.22-.99c-1.48-6.58-.74-11.58,2.15-15.37,2.41-3.14,6.26-5.37,11.54-6.93-10.42-6.39-7.94-13.14-5.27-20.4,1.33-3.62,2.71-7.38,2.21-11.14l-.21-1.56,1.57.13c2.83.23,6.22-.69,9.77-1.64,9.6-2.6,20.29-5.49,27.74,10.14,1.47-1.9,3.27-3.36,5.25-4.4,2.64-1.39,5.6-2.03,8.49-1.99,2.9.04,5.74.76,8.14,2.1,2.23,1.24,4.09,3.02,5.28,5.28l.14.49c.92,11.28-3.22,18.86-7.44,26.56-2.98,5.45-6,10.96-7.14,17.88l-.12.72-.67.26Z"/>
    <path class="cls-6" d="m651.11,332.55c7.4-10.65,21.59-10.84,37.29-1.94-7.32-11.41-6.83-24.25-4.15-37.49,12.3,1.21,23.29,5.16,32.35,13.13-3.38-15.47,11.36-20.37,18.12-27.31-7.09,30.66,15.42,50.93-15.21,75.44-28.92,10.68-43.38-22.83-68.4-21.83Z"/>
    <path class="cls-7" d="m650.07,331.82c3.89-5.6,9.53-8.48,16.25-8.83,5.67-.3,12.1,1.24,18.87,4.5-2.33-4.76-3.51-9.73-3.88-14.85-.47-6.41.34-13.05,1.7-19.78l.23-1.13,1.14.11c6.27.62,12.2,1.93,17.73,4.11,4.55,1.79,8.82,4.17,12.77,7.21-.71-10.2,6.5-15.5,12.99-20.27,2.22-1.63,4.36-3.2,5.96-4.84l2.15,1.17c-2.54,11-1.19,20.72.08,29.77,2.27,16.23,4.25,30.39-15.73,46.38l-.36.2c-16.93,6.25-28.92-1.99-40.8-10.15-8.78-6.03-17.51-12.03-27.99-11.6l-2.56.1,1.46-2.1h0Zm16.38-6.29c-5.06.26-9.43,2.16-12.72,5.77,10.1.53,18.45,6.27,26.85,12.04,11.29,7.76,22.69,15.58,38.31,9.91,18.66-15.03,16.78-28.49,14.63-43.91-1.15-8.25-2.38-17.04-.77-26.95-1.07.86-2.22,1.7-3.39,2.56-6.53,4.81-13.87,10.21-11.51,21.03l-2.08,1.23c-4.42-3.89-9.31-6.8-14.59-8.87-4.97-1.96-10.3-3.2-15.91-3.83-1.18,6.12-1.85,12.15-1.42,17.96.44,6.09,2.1,11.96,5.63,17.46l-1.7,1.79c-7.74-4.39-15.08-6.51-21.33-6.18Z"/>
    <path class="cls-2" d="m724.29,394.71c5.43-.86,10.86-1.71,16.29-2.57,6.33-15.84,21.15-21.17,23.7-39.99-2.6-9.47-17.8-13.68-25.86-4.6-4.48-25.1-23.87-14.42-34.4-17.66-1.04,12.07-18.45,19.03-1.82,32.51-13.55.09-20.18,4.98-20.12,17.68,12.38,2.81,29.82,11.81,42.2,14.62Z"/>
    <path class="cls-7" d="m724.34,393.42l15.34-2.42c2.77-6.56,6.9-11.31,10.98-15.98h0c5.48-6.28,10.86-12.46,12.33-22.77-.57-1.86-1.7-3.49-3.18-4.81-1.74-1.54-3.97-2.66-6.39-3.23-2.42-.56-5.02-.57-7.47.1-2.41.66-4.7,1.99-6.57,4.09l-1.74,1.96-.46-2.59c-3.03-17.01-13.46-16.51-22.76-16.06-3.32.16-6.51.31-9.32-.24-.7,3.76-2.76,6.98-4.75,10.09-3.87,6.07-7.45,11.67,2.66,19.86l-.8,2.26c-6.47.04-11.25,1.2-14.35,3.81-2.87,2.42-4.36,6.19-4.49,11.6,6.09,1.5,13.19,4.32,20.29,7.13,7.32,2.9,14.65,5.81,20.68,7.21h0Zm16.44-.02l-16.29,2.57h-.47c-6.31-1.44-13.8-4.41-21.29-7.38-7.42-2.94-14.84-5.88-20.91-7.25l-.99-.22v-1.01c-.04-6.75,1.75-11.47,5.4-14.54,3.02-2.55,7.27-3.9,12.75-4.29-8.8-8.47-4.93-14.53-.77-21.06,2.07-3.24,4.23-6.61,4.55-10.4l.13-1.57,1.51.46c2.72.83,6.22.67,9.9.49,9.93-.48,20.99-1.01,24.91,15.86,1.84-1.54,3.92-2.58,6.07-3.17,2.88-.79,5.91-.78,8.72-.13,2.82.66,5.43,1.98,7.49,3.8,1.91,1.69,3.34,3.83,4.02,6.29l.03.5c-1.52,11.22-7.19,17.73-12.97,24.36h0c-4.08,4.68-8.22,9.43-10.81,15.93l-.27.67-.72.11Z"/>
    <path class="cls-6" d="m677.89,380.97c9.52-8.81,23.42-5.96,36.84,6.11-4.71-12.71-1.47-25.15,3.99-37.51,11.75,3.82,21.64,10.04,28.78,19.77.02-15.84,15.47-17.46,23.56-22.78-13.51,28.43,4.13,53.05-31.05,70.42-30.54,4.22-37.46-31.61-62.12-36Z"/>
    <path class="cls-7" d="m677.03,380.04c5-4.63,11.13-6.24,17.76-5.14,5.61.93,11.56,3.81,17.47,8.44-1.25-5.15-1.34-10.25-.6-15.32.92-6.38,3.13-12.69,5.9-18.96l.46-1.05,1.09.36c5.98,1.94,11.49,4.51,16.43,7.82,4.06,2.73,7.72,5.97,10.92,9.79,1.49-10.12,9.67-13.75,17.04-17.01,2.52-1.12,4.93-2.19,6.86-3.46l1.85,1.6c-4.84,10.2-5.61,19.98-6.31,29.09-1.27,16.34-2.38,30.6-25.32,41.93l-.39.12c-17.88,2.47-27.83-8.15-37.68-18.67-7.28-7.78-14.51-15.5-24.84-17.34l-2.52-.45,1.87-1.74h0Zm17.35-2.64c-5.01-.83-9.68.08-13.66,2.9,9.75,2.68,16.68,10.08,23.65,17.53,9.36,10,18.81,20.09,35.28,17.91,21.45-10.67,22.51-24.22,23.72-39.74.65-8.31,1.34-17.16,5.04-26.5-1.23.61-2.53,1.18-3.86,1.77-7.41,3.29-15.74,6.99-15.76,18.06l-2.3.75c-3.48-4.74-7.64-8.63-12.34-11.8-4.43-2.97-9.36-5.32-14.71-7.15-2.47,5.73-4.42,11.48-5.25,17.23-.87,6.05-.52,12.13,1.75,18.27l-2.05,1.38c-6.62-5.95-13.33-9.6-19.5-10.62Z"/>
    <path class="cls-2" d="m730.7,453.19c5.5.62,11,1.24,16.49,1.86,10.87-13.43,26.77-14.59,34.88-31.87.92-7.97-13.06-17.76-23.57-11.23,3.21-25.12-18.7-20.07-27.9-25.95-4.62,11.24-23.52,13.27-11.52,30.53-13.1-3.5-20.97-.59-24.72,11.54,11.1,5.96,25.23,19.16,36.33,25.12Z"/>
    <path class="cls-7" d="m731.07,451.95l15.57,1.76c4.63-5.53,10.05-8.96,15.4-12.35h0c7.19-4.55,14.25-9.03,18.77-18.51.11-1.45-.37-2.99-1.29-4.47-1.1-1.77-2.8-3.41-4.85-4.7-2.07-1.29-4.48-2.21-6.98-2.49-2.85-.33-5.83.17-8.54,1.85l-2.27,1.41.34-2.65c2.17-17-8.01-19.27-17.11-21.3-3.27-.73-6.41-1.43-8.96-2.71-1.8,3.42-4.76,5.96-7.62,8.4-5.56,4.76-10.69,9.16-3.42,19.62l-1.37,1.95c-6.26-1.67-11.24-1.84-15.03-.15-3.5,1.55-6.08,4.75-7.83,9.86,5.39,3.03,11.4,7.59,17.4,12.16,6.18,4.69,12.36,9.39,17.78,12.33h0Zm15.98,4.37l-16.49-1.86-.46-.14c-5.64-3.03-11.99-7.85-18.34-12.67-6.26-4.75-12.52-9.51-18.01-12.45l-.92-.49.31-1c1.99-6.44,5.13-10.46,9.56-12.42,3.68-1.63,8.2-1.79,13.63-.7-5.97-10.44-.42-15.2,5.56-20.32,2.98-2.55,6.08-5.21,7.53-8.73l.58-1.41,1.28.82c2.37,1.51,5.8,2.28,9.4,3.08,9.74,2.17,20.59,4.6,19.32,21.74,2.62-1.1,5.35-1.4,8-1.09,2.89.33,5.66,1.38,8.03,2.86,2.38,1.49,4.37,3.42,5.67,5.51,1.25,2.01,1.88,4.2,1.64,6.3l-.11.39c-4.83,10.29-12.25,15-19.81,19.78h0c-5.34,3.39-10.76,6.82-15.23,12.35l-.44.54-.69-.08Z"/>
    <path class="cls-6" d="m690.05,427.8c11.83-5.89,24.39.52,33.72,15.58-.72-13.37,6.13-24.38,15.11-34.73,10.2,6.76,17.87,15.3,21.84,26.48,4.78-15.1,20.17-12.56,29.57-15.49-21.57,23.54-11.94,51.69-51.1,58.95-30.74-4.06-26.66-40.07-49.14-50.79Z"/>
    <path class="cls-7" d="m689.48,426.66c6.2-3.08,12.59-2.99,18.66-.19,5.15,2.38,10.05,6.72,14.37,12.74.33-5.28,1.78-10.2,4.03-14.88,2.81-5.84,6.83-11.27,11.38-16.51l.73-.84.93.62c5.19,3.44,9.75,7.35,13.52,11.83,3.1,3.68,5.67,7.74,7.61,12.24,4.46-9.29,13.45-10.59,21.53-11.75,2.77-.4,5.42-.78,7.66-1.48l1.32,2.07c-7.74,8.45-11.41,17.58-14.83,26.09-6.13,15.23-11.47,28.53-36.98,33.26h-.39c-18.02-2.37-24.43-15.14-30.78-27.8-4.69-9.34-9.34-18.61-18.74-23.09l-2.36-1.13,2.34-1.17h0Zm17.59,2.12c-4.58-2.12-9.37-2.48-14.08-.84,8.58,5.15,13.04,14.03,17.52,22.97,6.02,12.01,12.11,24.12,28.64,26.4,23.96-4.5,29.05-17.16,34.88-31.67,3.11-7.73,6.42-15.96,12.76-23.86-1.35.25-2.75.45-4.18.65-8.16,1.18-17.33,2.5-20.67,13.09l-2.42.04c-1.93-5.44-4.77-10.24-8.36-14.5-3.38-4.01-7.44-7.55-12.06-10.71-4.12,4.83-7.74,9.81-10.28,15.09-2.66,5.53-4.14,11.43-3.79,17.88l-2.35.73c-4.6-7.42-9.97-12.66-15.61-15.27Z"/>
    <path class="cls-2" d="m721.53,516.01c5,2.38,9.99,4.75,14.99,7.13,14.65-9.17,31.22-12.07,44.51-25.77-2.63-9.97-8.58-17.23-20.63-14.47,11.21-22.71-10.33-21.9-17.12-30.45-8.03,9.13-25.78,8.24-20.04,28.47-11.25-7.57-19.92-2.89-27.41,7.36,8.56,9.24,17.13,18.49,25.69,27.74Z"/>
    <path class="cls-7" d="m722.28,514.96l14.16,6.73c5.29-3.24,10.76-5.69,16.23-8.13,9.41-4.2,18.82-8.41,26.94-16.56-1.36-4.81-3.55-8.86-6.89-11.2-2.95-2.06-6.87-2.83-12.04-1.65l-2.61.6,1.18-2.4c7.34-14.88-.44-18.91-7.89-22.78-3-1.56-5.96-3.09-8.11-5.24-2.5,2.43-5.61,4.12-8.68,5.79-7.03,3.82-13.79,7.5-10.11,20.46l-1.93,1.4c-5.26-3.54-9.87-4.23-14-2.85-3.99,1.33-7.63,4.59-11.05,9.08l24.8,26.77h0Zm13.69,9.32l-14.99-7.12.54-1.15-.93.86-25.7-27.73-.71-.77.62-.84c3.89-5.33,8.13-9.22,12.92-10.82,4.15-1.39,8.64-1.05,13.57,1.56-2.43-12.5,4.69-16.37,12.07-20.39,3.28-1.78,6.61-3.6,8.96-6.27l1-1.14.95,1.19c1.84,2.32,5.02,3.97,8.25,5.64,8.15,4.23,16.65,8.64,10.05,23.92,4.77-.61,8.58.38,11.59,2.5,4.06,2.85,6.6,7.69,8.09,13.33l.18.69-.5.52c-8.57,8.84-18.41,13.24-28.23,17.63-5.61,2.51-11.22,5.02-16.52,8.33l-.59.37-.62-.3Z"/>
    <path class="cls-6" d="m690.91,484.7c13.1-1.72,23.33,2.5,27.26,19.78,3.66-12.88,13.73-21.06,25.59-27.93,7.44,9.71,11.92,20.28,12.04,32.14,9.43-12.73,22.07-11.44,31.91-11.16-28.05,15.25-27.01,51.12-66.4,45.25-27.75-13.84-12.62-40.64-30.4-58.09Z"/>
    <path class="cls-7" d="m690.74,483.44c6.83-.9,12.95-.23,17.92,2.95h0c4.18,2.67,7.48,7.09,9.65,13.79,2.02-4.91,5.01-9.11,8.67-12.81,4.55-4.61,10.12-8.43,16.14-11.91l.96-.56.68.89c3.79,4.94,6.83,10.12,8.94,15.58,1.72,4.46,2.83,9.11,3.21,13.97,8.92-9.81,19.9-9.43,29-9.12l1.84.06.57,2.38c-10.51,5.72-16.91,14.49-22.95,22.78-10.07,13.82-19.22,26.35-44.24,22.62l-.39-.12c-16.3-8.13-18.32-20.45-20.34-32.88-1.48-9.05-2.97-18.17-10.38-25.44l-1.86-1.83,2.59-.34h0Zm16.55,5.09c-3.8-2.43-8.46-3.2-13.7-2.83,6.45,7.46,7.88,16.23,9.31,24.94,1.92,11.73,3.82,23.37,18.79,30.92,23.36,3.4,32.05-8.5,41.62-21.63,5.47-7.51,11.23-15.39,20.06-21.26-8.73-.22-18.84.36-26.56,10.78l-2.29-.75c-.06-5.77-1.19-11.23-3.19-16.43-1.89-4.89-4.58-9.56-7.91-14.05-5.47,3.23-10.51,6.76-14.63,10.93-4.31,4.37-7.63,9.46-9.4,15.68l-2.46-.07c-1.88-8.28-5.23-13.4-9.64-16.22h0Z"/>
    <path class="cls-2" d="m694.9,571.92c4.11,3.72,8.21,7.45,12.32,11.17,16.68-4.71,33.41-2.8,50.09-12.29.35-10.41-3.26-19.13-15.61-19.89,17.29-18.81-3.6-24.16-7.64-34.38-10.32,6.55-27.09.64-27.4,21.87-8.61-10.54-18.26-8.47-28.39-.67,5.55,11.4,11.1,22.79,16.65,34.19Z"/>
    <path class="cls-7" d="m695.94,571.16l11.61,10.53c5.98-1.63,11.95-2.44,17.91-3.25,10.23-1.4,20.46-2.79,30.59-8.38.08-5.05-.85-9.61-3.39-12.84-2.23-2.84-5.77-4.7-11.05-5.03l-2.67-.17,1.81-1.96c11.33-12.34,5.03-18.47-1-24.34-2.43-2.36-4.82-4.69-6.26-7.38-3.1,1.64-6.56,2.39-9.98,3.13-7.84,1.7-15.39,3.34-15.6,16.95l-2.25.79c-4.02-4.92-8.24-6.9-12.59-6.74-4.21.15-8.64,2.27-13.21,5.65l16.09,33.04h0Zm10.43,12.88l-12.32-11.17.85-.94-1.15.56-16.65-34.19-.45-.93.82-.63c5.27-4.06,10.45-6.62,15.5-6.81,4.38-.16,8.59,1.44,12.57,5.38,1.27-12.81,9.2-14.53,17.43-16.32,3.66-.8,7.38-1.6,10.4-3.52l1.3-.83.57,1.43c1.1,2.77,3.67,5.27,6.29,7.82,6.6,6.42,13.47,13.1,2.73,26.03,4.76.76,8.13,2.81,10.42,5.73,3.07,3.91,4.1,9.32,3.91,15.21l-.02.71-.62.35c-10.76,6.12-21.45,7.58-32.13,9.04-6.09.83-12.18,1.66-18.23,3.37l-.67.19-.52-.47Z"/>
    <path class="cls-6" d="m674.56,532.86c13.05,2.07,21.64,9.07,20.43,26.93,7.22-11.44,19.22-16.49,32.56-19.77,4.34,11.52,5.59,23.05,2.29,34.57,12.7-9.65,24.45-4.8,33.8-1.72-31.28,6.78-40.61,41.84-76.68,24.92-22.62-21.31-.4-42.97-12.41-64.94Z"/>
    <path class="cls-7" d="m674.76,531.61c6.81,1.08,12.48,3.47,16.33,7.97,3.23,3.78,5.13,9,5.28,16.1,3.35-4.18,7.43-7.39,11.99-9.94,5.68-3.17,12.13-5.29,18.9-6.95l1.09-.27.4,1.05c2.22,5.87,3.64,11.76,4.09,17.64.37,4.81.09,9.63-.94,14.44,11.37-6.96,21.79-3.47,30.43-.57l1.74.58-.13,2.45c-11.73,2.54-20.38,9.22-28.56,15.52-13.64,10.52-26,20.05-48.93,9.3l-.33-.22c-13.28-12.51-11.67-25.02-10.04-37.63,1.19-9.2,2.39-18.46-2.62-27.62l-1.24-2.27,2.56.4h0Zm14.4,9.62c-2.95-3.44-7.2-5.51-12.33-6.65,4.06,9.07,2.9,17.98,1.76,26.83-1.54,11.92-3.07,23.74,9.11,35.33,21.41,9.95,33.16.89,46.11-9.1,7.42-5.72,15.22-11.73,25.39-14.9-8.31-2.7-18.18-5.03-28.59,2.87l-1.99-1.36c1.6-5.61,2.1-11.23,1.67-16.84-.4-5.29-1.63-10.58-3.54-15.87-6.17,1.57-12.01,3.55-17.17,6.42-5.39,3-10.04,6.99-13.53,12.51l-2.34-.76c.58-8.57-1.15-14.49-4.57-18.47Z"/>
    <path class="cls-2" d="m654.57,617.15c3.02,4.65,6.04,9.3,9.05,13.95,17.33-.29,33.01,5.83,51.56.92,3-9.97,1.74-19.33-10.01-23.22,21.52-13.77,2.7-24.28,1.4-35.19-11.65,3.7-26.35-6.3-32.08,14.14-5.63-12.39-15.49-12.86-27.28-7.9,2.45,12.43,4.9,24.87,7.36,37.31Z"/>
    <path class="cls-7" d="m655.77,616.67l8.53,13.15c6.23-.05,12.18.69,18.14,1.43,10.25,1.26,20.51,2.53,31.72-.28,1.36-4.86,1.63-9.5,0-13.28-1.43-3.31-4.37-6.02-9.4-7.69l-2.53-.84,2.24-1.44c14.11-9.03,9.58-16.57,5.24-23.8-1.74-2.9-3.46-5.76-4.17-8.73-3.41.79-6.95.63-10.44.48-8.02-.36-15.73-.7-19.41,12.41l-2.39.18c-2.63-5.79-6.19-8.78-10.45-9.74-4.11-.92-8.93,0-14.22,2.09l7.11,36.05h0Zm6.78,15.12l-9.05-13.95,1.07-.69-1.25.24-7.36-37.31-.2-1.02.96-.4c6.12-2.57,11.79-3.73,16.72-2.61,4.28.96,7.94,3.59,10.78,8.4,4.49-12.05,12.61-11.69,21.02-11.32,3.73.17,7.54.34,10.96-.75l1.46-.46.18,1.53c.35,2.96,2.2,6.04,4.08,9.17,4.73,7.89,9.67,16.1-4.02,25.86,4.41,1.96,7.15,4.8,8.61,8.2,1.97,4.57,1.59,10.06-.11,15.7l-.21.68-.69.18c-11.97,3.17-22.68,1.85-33.37.52-6.12-.76-12.24-1.51-18.49-1.41h-.7s-.38-.58-.38-.58Z"/>
    <path class="cls-6" d="m644.89,574.19c12.09,5.33,18.61,14.3,12.87,31.26,9.9-9.21,22.8-11.03,36.54-10.79,1.25,12.25-.49,23.71-6.62,34.01,14.74-6.08,24.86,1.61,33.12,6.98-31.97-1.44-49.96,30.07-80.5,4.5-16.42-26.38,10.6-41.65,4.59-65.95Z"/>
    <path class="cls-7" d="m645.4,573.03c6.31,2.78,11.18,6.55,13.75,11.88,2.16,4.48,2.66,10.01.99,16.91,4.31-3.19,9.07-5.26,14.13-6.54,6.3-1.61,13.07-2.01,20.04-1.88l1.13.02.12,1.12c.64,6.24.51,12.29-.56,18.09-.87,4.75-2.38,9.34-4.6,13.73,12.76-3.82,21.95,2.22,29.56,7.23h0s1.53,1,1.53,1l-.75,2.33c-11.99-.54-22.06,3.7-31.58,7.71-15.87,6.68-30.27,12.74-49.69-3.51l-.26-.3c-9.65-15.5-4.88-27.17-.08-38.95,3.5-8.59,7.03-17.24,4.53-27.37l-.62-2.51,2.37,1.05h0Zm11.46,12.99c-1.97-4.08-5.55-7.16-10.22-9.57,1.6,9.81-1.79,18.12-5.16,26.38-4.54,11.13-9.03,22.17-.22,36.48,18.15,15.09,31.83,9.34,46.91,2.99,8.63-3.64,17.71-7.46,28.36-7.91-7.35-4.74-16.29-9.51-28.38-4.53l-1.58-1.82c2.99-5.02,4.91-10.32,5.92-15.85.96-5.21,1.12-10.64.63-16.25-6.36-.06-12.51.37-18.23,1.83-5.98,1.53-11.5,4.19-16.28,8.64l-2.07-1.33c2.75-8.13,2.59-14.3.31-19.03Z"/>
    <path class="cls-2" d="m606.32,659.98c2.72,4.83,5.44,9.66,8.15,14.49,17.31.8,32.58,7.91,51.4,4.18,3.62-9.76,2.96-19.18-8.52-23.81,22.35-12.38,4.23-24.06,3.62-35.03-11.86,2.95-25.9-7.96-32.92,12.08-4.83-12.72-14.64-13.81-26.72-9.61,1.66,12.57,3.32,25.13,4.98,37.7Z"/>
    <path class="cls-7" d="m607.55,659.56l7.69,13.68c6.2.35,12.1,1.46,18.01,2.57,10.14,1.91,20.29,3.82,31.68,1.73,1.67-4.77,2.23-9.39.85-13.25-1.21-3.4-3.98-6.28-8.89-8.26l-2.48-1,2.33-1.29c14.66-8.12,10.62-15.93,6.74-23.42-1.55-3.01-3.09-5.97-3.61-8.98-3.46.58-6.98.2-10.45-.18-7.98-.86-15.66-1.69-20.16,11.15l-2.39.03c-2.26-5.94-5.63-9.15-9.81-10.38-4.05-1.18-8.92-.58-14.33,1.19l4.81,36.41h0Zm5.82,15.53l-8.15-14.49,1.11-.62-1.26.16-4.98-37.7-.14-1.02.98-.34c6.28-2.18,12-2.97,16.85-1.56,4.21,1.23,7.7,4.09,10.23,9.08,5.25-11.75,13.32-10.88,21.69-9.97,3.72.4,7.51.82,10.99-.05l1.49-.37.08,1.54c.16,2.97,1.81,6.16,3.49,9.41,4.23,8.17,8.63,16.69-5.64,25.55,4.28,2.23,6.82,5.24,8.07,8.73,1.68,4.68.95,10.14-1.1,15.66l-.25.67-.7.14c-12.14,2.4-22.74.4-33.34-1.59-6.05-1.14-12.09-2.28-18.36-2.57l-.71-.03-.34-.61Z"/>
  </g>
  <g>
    <path class="cls-7" d="m479.09,548.31c-11.58.48-23.1-4.25-33.66-8.49-9.12-3.66-19.28-7.85-29.19-8.35-8.39-.42-18.31,3.8-25.99,6.89-10.08,4.05-20.57,8.26-31.59,8.26-8.72,0-17.12-1.06-25.53-3.36-4.95-1.35-9.77-3.09-14.5-5.07l-.84-.35-.49-.77c-1.81-2.87-3.55-5.79-5.19-8.76l-4.32-7.81,8.08,3.8c6.58,3.09,13.33,5.91,20.35,7.83,7.4,2.03,14.77,2.95,22.44,2.95,9.12,0,18.87-4.06,27.23-7.41,9.69-3.89,20.31-8.26,30.95-7.72,11.53.58,22.37,4.91,32.95,9.16,8.63,3.46,19.64,8.12,29.13,7.66h.41c9.41.46,20.43-4.21,29.05-7.66,10.59-4.25,21.43-8.58,32.96-9.16,10.64-.54,21.25,3.83,30.95,7.72,8.36,3.36,18.11,7.42,27.22,7.41,7.67,0,15.05-.92,22.44-2.95,6.98-1.91,13.69-4.71,20.23-7.78l8.08-3.79-4.32,7.8c-1.64,2.97-3.38,5.89-5.19,8.75l-.49.77-.84.35c-4.7,1.95-9.48,3.67-14.38,5.02-8.41,2.3-16.81,3.35-25.53,3.36-11.02,0-21.51-4.21-31.59-8.26-7.69-3.08-17.61-7.31-26-6.89-9.91.5-20.07,4.69-29.19,8.35-10.56,4.24-22.07,8.97-33.65,8.49h0Zm1.46,22.27c10.88.47,21.64-4.32,31.41-8.57,8.22-3.57,17.6-7.78,26.64-8.27,7.54-.41,16.78,3.85,23.59,6.82,9.35,4.06,19.13,8.33,29.5,8.32,8.17,0,15.99-1.08,23.82-3.4,1.19-.35,2.38-.73,3.55-1.13l.68-.24.49-.53c2.97-3.17,5.83-6.45,8.57-9.83l7.85-9.71-11.32,5.27c-4.28,1.99-8.67,3.77-13.2,5.11-6.73,2-13.44,2.91-20.46,2.91-8.25,0-17.31-4.1-24.78-7.35-9.01-3.92-18.92-8.34-28.96-7.79-10.81.59-20.92,4.98-30.72,9.24-7.69,3.34-17.87,8.03-26.39,7.59h-.07s-.46,0-.46,0h-.08c-8.52.45-18.7-4.24-26.39-7.58-9.8-4.25-19.91-8.64-30.72-9.24-10.04-.55-19.95,3.87-28.96,7.79-7.47,3.25-16.52,7.35-24.78,7.35-7.02,0-13.73-.91-20.46-2.91-6.23-1.85-12.2-4.52-17.99-7.44l-11.53-5.82,7.95,10.18c2.82,3.62,5.79,7.13,8.88,10.51l.45.49.62.25c2.71,1.08,5.46,2.05,8.26,2.88,7.83,2.32,15.65,3.39,23.82,3.4,10.37,0,20.15-4.26,29.5-8.32,6.82-2.97,16.05-7.23,23.6-6.82,9.04.49,18.42,4.7,26.64,8.27,9.78,4.25,20.53,9.04,31.42,8.57Z"/>
    <path class="cls-2" d="m643.42,526.97c-1.61,2.92-3.32,5.78-5.1,8.6-4.75,1.98-9.35,3.62-14.03,4.9-7.79,2.13-15.72,3.25-24.77,3.25-10.45,0-20.59-4.06-30.51-8.05-9.47-3.8-18.73-7.52-27.22-7.09-10.06.51-20.23,4.58-30.12,8.55-11.08,4.44-21.84,8.76-32.58,8.28-10.74.48-21.5-3.83-32.58-8.28-9.9-3.97-20.06-8.04-30.12-8.55-8.49-.43-17.75,3.29-27.22,7.09-9.92,3.98-20.06,8.06-30.51,8.05-9.05,0-16.98-1.12-24.77-3.25-4.72-1.29-9.36-2.95-14.15-4.95-1.79-2.82-3.49-5.69-5.1-8.61,7.36,3.46,14.07,6.15,20.81,8,7.31,2,14.74,3.05,23.2,3.05,9.31,0,18.91-3.85,28.3-7.62,10.09-4.05,19.95-8.01,29.72-7.52,11.09.56,21.7,4.81,32.03,8.95,10.53,4.22,20.77,8.33,30.24,7.87h.28c9.47.46,19.7-3.65,30.23-7.87,10.33-4.14,20.94-8.4,32.03-8.95,9.77-.5,19.64,3.47,29.72,7.52,9.39,3.77,18.99,7.62,28.3,7.62,8.47,0,15.9-1.05,23.2-3.05,6.71-1.84,13.38-4.51,20.7-7.95h0Zm-16.85,24.97c-4.67,2.17-9.13,3.94-13.59,5.27-6.69,1.99-13.5,3.03-21.28,3.03-8.48,0-17.3-3.83-25.93-7.59-9.36-4.07-18.51-8.06-27.65-7.55-10.3.56-20.14,4.84-29.73,9-9.66,4.2-19.05,8.28-27.69,7.82h-.3c-8.64.46-18.03-3.62-27.69-7.82-9.58-4.16-19.42-8.44-29.73-9-9.14-.5-18.29,3.48-27.65,7.55-8.63,3.75-17.45,7.59-25.93,7.59-7.77,0-14.59-1.04-21.28-3.03-6.01-1.79-11.97-4.35-18.47-7.63,2.78,3.55,5.69,7,8.74,10.34,2.68,1.07,5.33,2,8.01,2.79,7.24,2.15,14.61,3.27,23,3.28,9.76,0,19.16-4.09,28.35-8.08,8.69-3.78,17.19-7.48,24.91-7.06,9.22.5,18.54,4.56,27.63,8.5,10.28,4.46,20.27,8.8,30.27,8.33,9.99.48,19.98-3.86,30.26-8.33,9.09-3.95,18.42-8,27.63-8.5,7.72-.42,16.22,3.28,24.9,7.06,9.19,4,18.59,8.09,28.35,8.08,8.4,0,15.76-1.13,23-3.28,1.15-.34,2.3-.71,3.44-1.1,2.93-3.13,5.74-6.35,8.43-9.67Z"/>
  </g>
  <g>
    <g>
      <g>
        <rect x="336.67" y="399.7" width="43.07" height="44.51"/>
        <rect class="cls-1" x="339.56" y="398.32" width="37.29" height="43"/>
        <rect x="336.67" y="428.28" width="18.95" height="15.93"/>
        <rect x="363.21" y="399.7" width="16.53" height="20.05"/>
        <polygon class="cls-7" points="325.73 399.7 358.2 399.7 390.67 399.7 358.2 372 325.73 399.7"/>
        <polygon class="cls-4" points="333.58 396.81 382.83 396.81 358.2 375.8 333.58 396.81"/>
      </g>
      <g>
        <rect x="581.31" y="399.7" width="43.07" height="44.51"/>
        <rect class="cls-1" x="584.2" y="398.32" width="37.29" height="43"/>
        <rect x="581.31" y="428.28" width="18.95" height="15.93"/>
        <rect x="607.85" y="399.7" width="16.53" height="20.05"/>
        <g>
          <polygon class="cls-7" points="570.37 399.7 602.84 399.7 635.31 399.7 602.84 372 570.37 399.7"/>
          <polygon class="cls-4" points="578.21 396.81 627.47 396.81 602.84 375.8 578.21 396.81"/>
        </g>
      </g>
      <rect x="417.32" y="411" width="125.04" height="33.21"/>
      <rect class="cls-1" x="420.21" y="413.89" width="119.26" height="27.43"/>
      <polygon class="cls-7" points="406.21 417.68 554.11 417.68 480.16 347.5 406.21 417.68"/>
      <polygon class="cls-4" points="413.45 414.79 546.87 414.79 480.16 351.49 413.45 414.79"/>
      <polygon class="cls-7" points="406.21 396.81 554.11 396.81 480.16 326.63 406.21 396.81"/>
      <polygon class="cls-4" points="413.45 393.92 546.87 393.92 480.16 330.61 413.45 393.92"/>
      <g>
        <rect x="428.35" y="427.38" width="27.96" height="24.06"/>
        <rect x="468.66" y="427.38" width="27.96" height="24.06"/>
        <rect x="503.85" y="427.38" width="27.96" height="24.06"/>
      </g>
      <g>
        <path class="cls-7" d="m662.99,489.88c-1.95,8.14-4.41,15.77-7.62,22.51h-58.3v-22.51h65.92Zm-68.81,22.51h-227.33v-22.51h227.33v22.51h0Zm-230.22,0h-58.3c-3.94-6.74-6.9-14.41-9.07-22.51h67.37v22.51Z"/>
        <path class="cls-4" d="m659.29,492.77h-59.32v16.73h53.56c2.4-5.36,4.26-11.03,5.76-16.73h0Zm-67.99,16.73v-16.73h-221.55v16.73h221.55Zm-230.22,0v-16.73h-60.65c1.75,5.78,4,11.46,6.92,16.73h53.73Z"/>
        <path class="cls-7" d="m667.7,463.02c-1.05,8.22-2.33,16.3-4.04,23.97h-114.82v-23.97h118.86Zm-121.75,23.97h-130.85v-23.97h130.85v23.97h0Zm-133.74,0h-116.34c-1.89-7.79-3.09-15.92-3.79-23.97h120.13v23.97Z"/>
        <path class="cls-4" d="m664.4,465.91h-112.67v18.2h109.6c1.26-6.02,2.25-12.1,3.08-18.2h0Zm-121.34,18.2v-18.2h-125.08v18.2h125.08Zm-133.74,0v-18.2h-114.06c.63,6.11,1.56,12.21,2.91,18.2h111.16Z"/>
        <path class="cls-7" d="m291.29,444.21h378.47c-.51,5.29-1.06,10.63-1.7,15.92h-376.21c-.39-5.41-.56-10.76-.56-15.92Z"/>
        <path class="cls-2" d="m294.2,447.1c.04,3.38.16,6.76.36,10.14h370.93c.39-3.38.75-6.76,1.08-10.14h-372.37Z"/>
      </g>
    </g>
    <g>
      <path class="cls-7" d="m498.5,269.26c7.72-3.4,16.05,2.4,15.84,11.6,11,2.57,13.03,13.23,7.79,22.31,2.26,1.36,4.17,3.25,5.48,5.6,3.79,6.78,1.29,14.1-3.45,19.48,7.69,8.92,5.17,24.46-5.82,27.75,2.42,7.85,2.06,17.35-5.29,22.36-2.4,1.63-5.14,2.38-7.93,2.41,1.43,5.77.63,12.09-4.77,15.7-1.67,1.12-3.56,1.75-5.51,1.94,0,8.23-1.24,16.46-8.8,20.82v17.84h-25.2v-14.26c-10.7-1.98-20.43-8.01-28.98-14.5l-5.59-4.24,6.95-.92c5.85-.78,11.21-2.86,15.74-6.7,12.47-10.56,14.62-30.92,14.25-46.16-.54-22.75-6.61-47.12-14.35-68.44-3.42-9.41-7.33-18.66-11.75-27.65l-4.75-9.66,8.94,5.98c6.39,4.27,12.78,8.54,19.17,12.82-.93-9.22-3.89-18.41-6.18-27.27-5.77-22.31-5.85-39.58,9.47-58.72l5.29-6.61-.14,8.47c-.25,14.36,1.65,28.06,7.3,41.33,4.15,9.77,9.96,18.19,14.84,27.51,3.64,6.95,6.18,13.69,7.43,21.19h0Zm.26,86.61c-2.8,0-5.07,2.27-5.07,5.07s2.27,5.07,5.07,5.07,5.07-2.27,5.07-5.07-2.27-5.07-5.07-5.07h0Zm5.04-61.7c-2.8,0-5.07,2.27-5.07,5.07s2.27,5.07,5.07,5.07,5.07-2.27,5.07-5.07-2.27-5.07-5.07-5.07Z"/>
      <path class="cls-7" d="m484.65,533.02c12.44,7.56,16.85,7.11,10.14,23.73-4.69,11.6-9.37,23.2-14.05,34.8l-4.62,11.43v-45.04l.45-.27c1.21-.73,1.96-2.03,1.96-3.46,0-2.22-1.8-4.03-4.02-4.03s-4.03,1.8-4.03,4.03c0,1.72,1.09,3.24,2.71,3.81l1.15.4v44.2l-4.73-10.73c-5.23-11.86-10.47-23.72-15.7-35.58-6.63-15.05-2.43-15.11,8.33-23.11v-11.62h22.43v11.44Z"/>
      <path class="cls-5" d="m439.72,252.94c7.99,5.34,15.97,10.68,23.96,16.02,0-29.05-24.2-56.59,2.37-89.78-.92,52.84,27.21,61.39,30.18,95.15,7.05-7.07,17.12-1.29,14.92,8.95,13.35,1.23,12.82,13.38,6.69,21.09,9.09,3.02,12.96,14.24,2.22,23.94,9.7,7.74,6.49,25-5.64,25.44,6.73,15.39-1.56,27.01-13.62,23.55,5.53,11.42-.74,19.47-8.89,18.16.29,10.95-.92,18.52-8.76,22.03v16.72h-19.42v-13.85c-10.54-1.29-20.45-6.98-30.12-14.33,48.29-6.44,36.32-91.61,6.11-153.08h0Zm59.04,100.04c-4.4,0-7.96,3.56-7.96,7.96s3.56,7.96,7.96,7.96,7.96-3.56,7.96-7.96-3.56-7.96-7.96-7.96h0Zm5.04-61.7c-4.4,0-7.96,3.56-7.96,7.96s3.56,7.96,7.96,7.96,7.96-3.56,7.96-7.96-3.56-7.96-7.96-7.96Z"/>
      <path class="cls-5" d="m465.12,524.46h16.65v10.17c13.45,8.43,16.35,6.2,10.35,21.03-4.69,11.6-9.37,23.2-14.05,34.8v-30.31c2.01-1.21,3.36-3.41,3.36-5.93,0-3.82-3.1-6.91-6.91-6.91s-6.91,3.1-6.91,6.91c0,3.03,1.94,5.6,4.65,6.54v29.96c-5.23-11.86-10.47-23.72-15.7-35.58-5.9-13.38-2.96-11.67,8.57-20.51v-10.17Z"/>
      <g>
        <g>
          <path class="cls-7" d="m482.34,501.16c3.32.27,7.65,1.68,7.65,5.34v7.22c0,4.14-5.52,5.4-8.86,5.4h-15.36c-3.35,0-8.86-1.26-8.86-5.4v-7.22c0-3.66,4.33-5.07,7.64-5.34h17.8Z"/>
          <path class="cls-5" d="m465.76,503.91h15.36c3.29,0,5.98,1.17,5.98,2.59v7.22c0,1.42-2.69,2.59-5.98,2.59h-15.36c-3.29,0-5.97-1.17-5.97-2.59v-7.22c0-1.42,2.69-2.59,5.97-2.59Z"/>
        </g>
        <g>
          <path class="cls-7" d="m467.98,454.71h10.92c2.89,0,7.14.97,7.14,3.85v4.26c0,2.89-4.25,3.86-7.14,3.86h-10.92c-2.89,0-7.14-.97-7.14-3.86v-4.26c0-2.88,4.24-3.85,7.14-3.85Z"/>
          <path class="cls-5" d="m467.98,457.03h10.92c2.34,0,4.25.69,4.25,1.53v4.26c0,.84-1.91,1.53-4.25,1.53h-10.92c-2.34,0-4.25-.69-4.25-1.53v-4.26c0-.84,1.91-1.53,4.25-1.53Z"/>
        </g>
        <g>
          <path class="cls-7" d="m464.64,441.02h17.6c3,0,8.66.49,8.66,3.07v4.03c0,2.58-5.65,3.07-8.66,3.07h-17.6c-3.01,0-8.66-.49-8.66-3.07v-4.03c0-2.57,5.65-3.07,8.66-3.07Z"/>
          <path class="cls-5" d="m464.64,442.86h17.6c3.17,0,5.76.55,5.76,1.22v4.03c0,.68-2.59,1.23-5.76,1.23h-17.6c-3.17,0-5.76-.55-5.76-1.23v-4.03c0-.67,2.59-1.22,5.76-1.22Z"/>
        </g>
        <g>
          <path class="cls-7" d="m467.98,470.19h10.92c2.89,0,7.14.97,7.14,3.85v4.26c0,2.88-4.25,3.86-7.14,3.86h-10.92c-2.89,0-7.14-.97-7.14-3.86v-4.26c0-2.88,4.24-3.85,7.14-3.85Z"/>
          <path class="cls-5" d="m467.98,472.52h10.92c2.34,0,4.25.69,4.25,1.52v4.26c0,.84-1.91,1.53-4.25,1.53h-10.92c-2.34,0-4.25-.69-4.25-1.53v-4.26c0-.84,1.91-1.52,4.25-1.52Z"/>
        </g>
        <g>
          <path class="cls-7" d="m467.98,485.68h10.92c2.89,0,7.14.97,7.14,3.85v4.26c0,2.88-4.25,3.86-7.14,3.86h-10.92c-2.89,0-7.14-.97-7.14-3.86v-4.26c0-2.88,4.24-3.85,7.14-3.85Z"/>
          <path class="cls-5" d="m467.98,488h10.92c2.34,0,4.25.69,4.25,1.53v4.26c0,.84-1.91,1.53-4.25,1.53h-10.92c-2.34,0-4.25-.69-4.25-1.53v-4.26c0-.84,1.91-1.53,4.25-1.53Z"/>
        </g>
      </g>
    </g>
  </g>
  <path class="cls-2" d="m359.41,596.35c1.05,3.93,2.11,7.86,3.16,11.79,36.72-.64,69.23,10.21,98.87,28.92h26.08c27.29-17.91,58.51-29.1,96.74-28.3,1.16-4.14,2.32-8.27,3.49-12.41-15.56-2.15-31.12-4.3-46.68-6.46-22.68,8.95-45.37,17.9-68.05,26.85-25.83-11.79-51.66-23.58-77.49-35.38-12.04,4.99-24.08,9.99-36.12,14.98Z"/>
  <path class="cls-7" d="m360.93,597.09l2.62,9.76c18.13-.21,35.24,2.35,51.48,7.27,16.41,4.97,31.95,12.34,46.78,21.66h25.34c13.64-8.92,28.28-16.17,44.27-21.11,15.84-4.89,33.02-7.51,51.89-7.21l2.83-10.06-44.9-6.21-67.74,26.73-.5.19-.5-.23-76.98-35.15-34.58,14.34h0Zm.41,11.38l-3.16-11.79-.33-1.01,1.07-.5,36.12-14.98.51-.21.51.23,77,35.15,67.55-26.66.64-.07,46.68,6.45,1.36.45-3.8,13.57-.27.95-.98-.02c-18.97-.4-36.21,2.18-52.08,7.08-15.86,4.9-30.39,12.12-43.94,21.02l-.7.21h-26.08l-.68-.2c-14.72-9.29-30.16-16.63-46.47-21.57-16.3-4.93-33.48-7.47-51.7-7.15l-.99.02-.26-.96Z"/>
  <path class="cls-2" d="m473.58,625.92h-12.42c-32.28-21.85-66.71-27.92-101.75-29.57,15.82-9.51,31.64-19.03,47.46-28.54,27.57,7.53,50.15,20.89,66.71,41.27,16.56-20.38,39.14-33.73,66.71-41.27,15.82,9.51,31.64,19.03,47.46,28.54-35.04,1.65-69.47,7.72-101.75,29.57h-12.42Z"/>
  <path class="cls-7" d="m473.58,627.19h-12.42l-.71-.23c-16.01-10.83-32.55-17.76-49.45-22.18-16.92-4.43-34.21-6.35-51.65-7.17l-.59-2.36,47.45-28.54.46-.28.52.14c13.9,3.8,26.55,9.07,37.81,15.96,10.84,6.63,20.41,14.77,28.57,24.53,8.16-9.77,17.72-17.9,28.56-24.53,11.26-6.89,23.91-12.16,37.81-15.96l.52-.14.46.28,47.46,28.54-.59,2.36c-17.44.82-34.73,2.74-51.65,7.17-16.89,4.42-33.44,11.35-49.45,22.18l-.71.23h-12.42Zm-12.05-2.55h24.09c16.16-10.88,32.86-17.86,49.9-22.32,15.77-4.13,31.82-6.1,48.01-7.04l-43.43-26.12c-13.46,3.73-25.71,8.86-36.63,15.53-11.04,6.75-20.72,15.09-28.91,25.16l-.98,1.21-.99-1.21c-8.19-10.07-17.87-18.41-28.9-25.16-10.92-6.68-23.18-11.81-36.63-15.53l-43.43,26.12c16.18.93,32.24,2.91,48.01,7.04,17.04,4.46,33.74,11.43,49.9,22.32Z"/>
  <path class="cls-7" d="m467.08,611.42c-7.82-9.21-16.87-16.68-26.85-22.69h0c-9.98-6-20.88-10.55-32.42-13.91l-27.59,16.6c14.43,1.58,28.39,4.22,41.9,8.51h0c14.13,4.48,27.78,10.76,41.01,19.49h3.95v-8h0Zm-26.11-23.92c10.18,6.13,19.42,13.77,27.38,23.19l-.55.46h.72v9.71h-5.61l-.4-.12c-13.16-8.7-26.76-14.97-40.83-19.43h0c-14.08-4.47-28.65-7.15-43.75-8.68l-.3-1.34,29.7-17.87.27-.16.3.09c11.77,3.4,22.9,8.02,33.07,14.14h0Z"/>
  <path class="cls-7" d="m478.81,610.69c7.96-9.43,17.19-17.07,27.38-23.19h0c10.17-6.12,21.3-10.74,33.07-14.14l.3-.09.27.16,29.7,17.87-.3,1.34c-15.11,1.54-29.68,4.21-43.75,8.68h0c-14.07,4.47-27.66,10.73-40.83,19.44l-.4.12h-5.61v-9.71h.72l-.55-.46h0Zm28.12-21.96c-9.97,6-19.03,13.47-26.85,22.69v8h3.95c13.23-8.72,26.88-15,41.01-19.49h0c13.51-4.29,27.47-6.94,41.9-8.51l-27.59-16.6c-11.53,3.36-22.44,7.9-32.42,13.91h0Z"/>
  <path class="cls-2" d="m233.18,778.64l32.13-28.15,8.68,9.9c3.29,3.75,5.27,6.33,5.95,7.75,1.05,2.18,1.29,4.56.71,7.16-.58,2.6-2.15,5.02-4.7,7.26-1.97,1.73-3.93,2.84-5.87,3.34-1.94.5-3.75.56-5.44.19-1.68-.38-3.12-1-4.32-1.86-1.6-1.21-3.62-3.2-6.07-5.99l-3.52-4.02-12.11,10.62-5.43-6.19h0Zm32.12-17.2l-9.15,8.02,2.95,3.37c2.13,2.43,3.72,3.9,4.77,4.42,1.06.52,2.14.71,3.27.53,1.12-.17,2.16-.66,3.12-1.5,1.17-1.03,1.85-2.2,2.05-3.52.19-1.32-.05-2.56-.73-3.73-.5-.86-1.72-2.4-3.66-4.62l-2.6-2.97Z"/>
  <path class="cls-2" d="m283.15,827.96l-6.68-5.84,3.76-9.63-12.27-10.74-8.95,5.09-6.56-5.73,40.01-21.75,6.55,5.73-15.86,42.88h0Zm-.17-22.66l6.16-15.62-14.54,8.29,8.38,7.34Z"/>
  <path class="cls-2" d="m286.81,830.42l24.82-34.77,14.08,10.05c3.54,2.52,5.88,4.68,7.04,6.44,1.17,1.77,1.65,3.8,1.48,6.08-.18,2.29-.99,4.46-2.46,6.51-1.87,2.61-4.13,4.25-6.8,4.91-2.67.66-5.6.18-8.82-1.44.81,1.91,1.3,3.73,1.48,5.45.18,1.73.1,4.52-.24,8.35l-.8,9.66-7.99-5.7.63-11.01c.21-3.92.24-6.46.1-7.62-.13-1.15-.46-2.11-.98-2.88-.53-.77-1.56-1.7-3.1-2.8l-1.36-.97-10.37,14.52-6.7-4.79h0Zm21.02-15.27l4.94,3.53c3.21,2.29,5.3,3.57,6.31,3.86,1,.28,1.98.24,2.93-.14.95-.37,1.8-1.09,2.54-2.13.84-1.17,1.21-2.33,1.13-3.48-.08-1.14-.6-2.19-1.54-3.15-.49-.47-2.08-1.67-4.79-3.6l-5.21-3.72-6.31,8.84Z"/>
  <rect class="cls-1" x="313.66" y="832.08" width="42.72" height="8.24" transform="translate(-557.36 713.23) rotate(-60.32)"/>
  <path class="cls-2" d="m365.08,857.13l6.16,5.64c-3.07,3.77-6.37,6.09-9.91,6.99-3.53.89-7.28.43-11.25-1.39-4.91-2.25-8.14-5.87-9.69-10.84-1.54-4.97-.92-10.52,1.88-16.64,2.96-6.46,6.86-10.76,11.67-12.88,4.82-2.12,9.82-2,15,.38,4.53,2.07,7.56,5.17,9.09,9.27.92,2.44,1.09,5.4.5,8.9l-8.23-1.54c.48-2.21.3-4.21-.56-6.02-.86-1.8-2.28-3.16-4.26-4.06-2.75-1.26-5.45-1.25-8.1.04-2.66,1.28-5.04,4.23-7.16,8.86-2.25,4.9-3.01,8.78-2.28,11.63.73,2.86,2.44,4.9,5.13,6.14,1.99.91,4,1.04,6.04.36,2.04-.67,4.02-2.28,5.95-4.84Z"/>
  <path class="cls-2" d="m407.71,887.08l-8.52-2.47-.67-10.32-15.66-4.54-5.95,8.4-8.37-2.42,27.05-36.64,8.36,2.42,3.76,45.56h0Zm-9.74-20.46l-1.03-16.76-9.67,13.66,10.7,3.1Z"/>
  <path class="cls-2" d="m412.04,888.12l5.67-42.34,17.14,2.3c4.31.58,7.39,1.38,9.24,2.4,1.86,1.02,3.24,2.58,4.15,4.68.91,2.11,1.21,4.41.87,6.91-.43,3.18-1.66,5.69-3.71,7.52-2.05,1.83-4.87,2.78-8.47,2.85,1.61,1.31,2.9,2.68,3.86,4.13.97,1.45,2.2,3.95,3.7,7.5l3.81,8.92-9.73-1.3-4.6-10.03c-1.65-3.56-2.81-5.82-3.48-6.79-.65-.95-1.39-1.65-2.22-2.08-.83-.43-2.18-.77-4.05-1.02l-1.65-.22-2.37,17.68-8.16-1.09h0Zm11.43-23.33l6.02.81c3.9.52,6.36.67,7.38.46,1.01-.22,1.86-.72,2.52-1.49.67-.77,1.08-1.8,1.25-3.07.19-1.43-.02-2.62-.62-3.61-.61-.97-1.55-1.66-2.84-2.06-.65-.19-2.63-.5-5.92-.94l-6.35-.85-1.44,10.76Z"/>
  <path class="cls-2" d="m489.36,894.13l-8.87-.18-3.31-9.79-16.31-.33-3.58,9.65-8.71-.18,16.65-42.39,8.7.18,15.42,43.04h0Zm-14.71-17.24l-5.33-15.92-5.81,15.7,11.14.23Z"/>
  <path class="cls-2" d="m500.13,850.73l14.75-2.57c3.33-.58,5.91-.76,7.75-.52,2.47.32,4.71,1.26,6.7,2.83,2,1.56,3.66,3.61,5.01,6.15,1.33,2.53,2.35,5.78,3.04,9.72.6,3.47.71,6.52.33,9.17-.46,3.24-1.46,5.97-2.99,8.18-1.15,1.68-2.85,3.13-5.09,4.35-1.68.91-4,1.61-6.99,2.13l-15.19,2.64-7.32-42.09h0Zm9.35,5.7l4.84,27.86,6.02-1.05c2.25-.39,3.85-.81,4.8-1.25,1.26-.57,2.24-1.35,2.95-2.32.72-.97,1.19-2.45,1.4-4.42.23-1.98.05-4.6-.52-7.85-.57-3.25-1.27-5.69-2.12-7.34-.84-1.65-1.84-2.87-2.99-3.68-1.15-.8-2.5-1.25-4.08-1.33-1.17-.07-3.4.18-6.68.75l-3.62.63Z"/>
  <polygon class="cls-2" points="547.82 885.5 535.94 844.46 543.85 842.17 548.53 858.33 563.91 853.88 559.23 837.72 567.14 835.43 579.03 876.46 571.12 878.75 565.92 860.81 550.54 865.27 555.73 883.2 547.82 885.5"/>
  <path class="cls-2" d="m620.39,858.22l-8.07,3.67-7.22-7.4-14.85,6.74.94,10.25-7.93,3.6-3.27-45.42,7.92-3.59,32.48,32.17h0Zm-20.71-9.21l-11.68-12.06,1.53,16.67,10.14-4.6Z"/>
  <path class="cls-2" d="m624.46,856.37l-23.29-35.81,14.5-9.43c3.64-2.37,6.51-3.77,8.57-4.2,2.07-.44,4.13-.15,6.19.85,2.07,1.01,3.79,2.56,5.16,4.67,1.75,2.69,2.45,5.4,2.09,8.12-.36,2.73-1.88,5.28-4.57,7.68,2.07-.06,3.95.15,5.62.62,1.68.46,4.24,1.56,7.69,3.28l8.7,4.28-8.23,5.35-10.02-4.61c-3.58-1.62-5.93-2.58-7.06-2.88-1.12-.3-2.13-.35-3.04-.14-.91.21-2.16.83-3.74,1.87l-1.4.91,9.73,14.95-6.9,4.49h0Zm-6.53-25.15l5.09-3.31c3.3-2.15,5.26-3.64,5.9-4.46.63-.83.95-1.76.94-2.77,0-1.02-.35-2.07-1.05-3.15-.78-1.21-1.72-1.97-2.83-2.33-1.09-.34-2.26-.25-3.5.28-.62.28-2.32,1.33-5.11,3.14l-5.37,3.49,5.92,9.1Z"/>
  <polygon class="cls-2" points="659.22 834.59 631.07 802.47 640.35 794.34 665.03 811.45 651.25 784.79 660.55 776.64 688.7 808.77 682.98 813.78 660.79 788.51 676.92 819.09 670.97 824.3 642.81 804.27 664.95 829.58 659.22 834.59"/>
  <path class="cls-2" d="m719.17,775.84l-5.84,6.68-9.63-3.76-10.74,12.28,5.09,8.95-5.73,6.56-21.76-40.01,5.73-6.55,42.88,15.86h0Zm-22.66.17l-15.62-6.16,8.28,14.54,7.34-8.39Z"/>
</svg>